# xmcd
#
# Track frame offsets: 
#        150
#        22313
#        37294
#        59325
#        78047
#        99977
#        120792
#        142373
#        160140
#        185852
#        213577
#        231028
#
# Disc length: 3231 seconds
#
# Revision: 0
# Processed by: cddbd v1.5.2PL0 Copyright (c) Steve Scherf et al.
# Submitted via: ExactAudioCopy v0.95b4
#
DISCID=aa0c9d0c
DTITLE=Iris (Hartweger) - Songs for my father
DYEAR=2008
DGENRE=Blues
TTITLE0=All of me
TTITLE1=Nature boy
TTITLE2=This masquerade
TTITLE3=What a difference a day made
TTITLE4=Don´t get around much anymore
TTITLE5=Stormy weather
TTITLE6=Summertime
TTITLE7=At last
TTITLE8=Kaisermühlenblues
TTITLE9=Les feuilles mortes/Autumn leaves
TTITLE10=Song for my father
TTITLE11=My funny Valentine
EXTD=
EXTT0=
EXTT1=
EXTT2=
EXTT3=
EXTT4=
EXTT5=
EXTT6=
EXTT7=
EXTT8=
EXTT9=
EXTT10=
EXTT11=
PLAYORDER=
